
<svg width="256px" height="256px" viewBox="-102.4 -102.4 1228.80 1228.80" class="icon" version="1.1" xmlns="http://www.w3.org/2000/svg" fill="#000000" stroke="#000000" stroke-width="0.01024" transform="rotate(0)">

<g id="SVGRepo_bgCarrier" stroke-width="0" transform="translate(0,0), scale(1)">

<path transform="translate(-102.4, -102.4), scale(38.4)" d="M16,31.69591323410471C18.682892006019785,32.291816192970636,21.811430343343716,31.412249016935835,23.807733742520213,29.52339153401491C25.772298677047882,27.664564274191882,25.176739848076334,24.407282818837473,26.302347561003785,21.948063137630623C27.290618993771854,19.788894779129535,29.865088830028764,18.370896777040336,29.99751578271389,16C30.130306948549922,13.622582558033601,28.001154963404687,11.810796667152022,26.988949835958888,9.655526854097847C25.871943737972927,7.27710625662316,25.970991187644106,3.9842457019310524,23.71874835590522,2.6307356767334316C21.471870543792196,1.280449818906512,18.51378554534303,2.30821681826338,16,3.0515969581902027C13.892705034244312,3.674769141438948,12.500386896959778,5.552001394873418,10.532588312402371,6.530165171185001C8.392714421504435,7.593865055094648,5.714315313893059,7.43188966018683,3.948646479685763,9.042147800947223C1.962241313495908,10.853713496471181,0.022500612356094768,13.314552888547556,0.14879219979047775,15.999999999999996C0.27534914684410905,18.691089682248197,2.7409776179442114,20.62666686041038,4.585777015027823,22.590004712964088C6.1235089744195275,24.226544364770184,8.211679917066101,25.04877847802094,9.967136304204658,26.449226436255273C12.086577696082005,28.140050196730556,13.353243918940212,31.10803650385951,16,31.69591323410471" fill="#7ed0ec" strokewidth="0"/>

</g>

<g id="SVGRepo_tracerCarrier" stroke-linecap="round" stroke-linejoin="round"/>

<g id="SVGRepo_iconCarrier">

<path d="M512 512m-480 0a480 480 0 1 0 960 0 480 480 0 1 0-960 0Z" fill="#000000"/>

<path d="M512 198.4h-6.4c-115.2 6.4-211.2 102.4-211.2 217.6 0 57.6 19.2 108.8 57.6 147.2l12.8 12.8c25.6 32 38.4 38.4 38.4 76.8v19.2h217.6v-19.2c0-38.4 12.8-51.2 38.4-76.8l19.2-19.2c32-38.4 51.2-89.6 51.2-140.8 0-121.6-96-217.6-217.6-217.6" fill="#16493d"/>

<path d="M448 780.8c0 12.8 12.8 19.2 19.2 19.2h89.6c12.8 0 19.2-6.4 19.2-19.2 0-12.8-12.8-19.2-19.2-19.2H467.2c-12.8 0-19.2 6.4-19.2 19.2z" fill="#16493d"/>

<path d="M512 288c-70.4 0-128 57.6-128 128 0 12.8 12.8 19.2 19.2 19.2s19.2-12.8 19.2-19.2c0-44.8 38.4-89.6 89.6-89.6 12.8 0 19.2-12.8 19.2-19.2s-6.4-19.2-19.2-19.2z" fill="#ffffff"/>

<path d="M403.2 716.8c0 12.8 12.8 19.2 19.2 19.2h172.8c12.8 0 19.2-6.4 19.2-19.2 0-12.8-12.8-19.2-19.2-19.2H422.4c-6.4 0-19.2 6.4-19.2 19.2z" fill="#16493d"/>

</g>

</svg>